<svg xmlns="http://www.w3.org/2000/svg" viewBox="0 0 16.69 22.7"><defs><style>.cls-1{fill:#2cb7d5;}</style></defs><title>Icon_Lab Blue</title><g id="Layer_2" data-name="Layer 2"><g id="Top_Bar" data-name="Top Bar"><path class="cls-1" d="M8.43,20.38A8.24,8.24,0,0,1,2.59,18l1.64-1.64a5.95,5.95,0,1,0,8.41-8.41,6,6,0,0,0-2.17-1.38l.79-2.17a8.16,8.16,0,0,1,3,1.92A8.25,8.25,0,0,1,8.43,20.38Z"/><rect class="cls-1" x="6.44" y="0.7" width="5.55" height="10.17" transform="translate(4.4 -3.97) rotate(31.61)"/><rect class="cls-1" x="4.29" y="9.99" width="3.62" height="1.72" transform="translate(6.59 -1.59) rotate(31.61)"/><rect class="cls-1" y="15.7" width="7.85" height="2.28"/><path class="cls-1" d="M5.49,19.49H9.88a3.21,3.21,0,0,1,3.21,3.21v0a0,0,0,0,1,0,0H2.28a0,0,0,0,1,0,0v0A3.21,3.21,0,0,1,5.49,19.49Z"/></g></g></svg>