<svg xmlns="http://www.w3.org/2000/svg" viewBox="0 0 61.42 13.36"><defs><style>.cls-1{fill:#2cb7d5;}.cls-2{fill:#fff;}</style></defs><title>simplelab_Logo_white</title><g id="Layer_2" data-name="Layer 2"><g id="Layer_1_copy" data-name="Layer 1 copy"><path class="cls-1" d="M43.45.41,45.16,0V8.25c0,.91.27,1.44.81,1.62a1.42,1.42,0,0,1-1.36.75c-.78,0-1.16-.54-1.16-1.62Z"/><path class="cls-1" d="M51.37,9.75a1.58,1.58,0,0,1-.81.63,3.11,3.11,0,0,1-1.21.24A2.75,2.75,0,0,1,47.49,10a2.13,2.13,0,0,1-.68-1.68,2.36,2.36,0,0,1,1-2,4.42,4.42,0,0,1,2.71-.72,3.08,3.08,0,0,1,.72.11c0-.87-.55-1.3-1.64-1.3a3.71,3.71,0,0,0-1.62.32l-.37-1.33A4.87,4.87,0,0,1,49.68,3a3.44,3.44,0,0,1,2.46.76,4.08,4.08,0,0,1,.78,2.9V8.24c0,1,.19,1.59.59,1.84a1,1,0,0,1-.48.46,2.1,2.1,0,0,1-.59.08,1,1,0,0,1-.67-.27A1.51,1.51,0,0,1,51.37,9.75ZM51.21,7a3.56,3.56,0,0,0-.66-.09c-1.35,0-2,.45-2,1.33,0,.66.39,1,1.15,1a1.36,1.36,0,0,0,1.54-1.54Z"/><path class="cls-1" d="M56,10.08l-.38.54h-1V.41L56.34,0V3.43A2.83,2.83,0,0,1,57.84,3a3.43,3.43,0,0,1,2.59,1,3.55,3.55,0,0,1,1,2.6,4.15,4.15,0,0,1-1,2.92,3.52,3.52,0,0,1-2.7,1.07A2.87,2.87,0,0,1,56,10.08Zm.36-5.19V8.72a1.26,1.26,0,0,0,1,.45,2.25,2.25,0,0,0,1.76-.59,2.78,2.78,0,0,0,.52-1.88c0-1.49-.71-2.24-2.14-2.24A1.53,1.53,0,0,0,56.34,4.89Z"/><path class="cls-2" d="M0,10,.64,8.65a2.75,2.75,0,0,0,1.73.61c.67,0,1-.24,1-.72a.88.88,0,0,0-.3-.68A4.45,4.45,0,0,0,1.9,7.23C.63,6.7,0,6,0,5A1.72,1.72,0,0,1,.73,3.54,3.07,3.07,0,0,1,2.58,3a4.74,4.74,0,0,1,2.16.51l-.5,1.33a2.31,2.31,0,0,0-1.56-.48c-.6,0-.9.24-.9.71a.64.64,0,0,0,.3.51,5.58,5.58,0,0,0,1.26.61,3.21,3.21,0,0,1,1.39.92,2.08,2.08,0,0,1,.42,1.31A1.93,1.93,0,0,1,4.4,10a3.31,3.31,0,0,1-2.06.58,4.7,4.7,0,0,1-1.18-.12A5.64,5.64,0,0,1,0,10Z"/><path class="cls-2" d="M7.85.3a1,1,0,0,1,.7.29A1,1,0,0,1,8.55,2a1,1,0,0,1-.7.29A1,1,0,0,1,7.15,2a1,1,0,0,1-.3-.7,1,1,0,0,1,.3-.71A1,1,0,0,1,7.85.3Z"/><path class="cls-2" d="M19.21,10.48V5.89c0-1-.43-1.45-1.3-1.45a1.39,1.39,0,0,0-.74.23,1.37,1.37,0,0,0-.5.52v5.29H15V5.62a1.11,1.11,0,0,0-.34-.86,1.32,1.32,0,0,0-.94-.32,1.31,1.31,0,0,0-.7.24,1.69,1.69,0,0,0-.56.53v5.27H10.71V3.14h1.18l.35.65A2.37,2.37,0,0,1,14.08,3a2.85,2.85,0,0,1,2.2.79,2.38,2.38,0,0,1,.9-.58A3.33,3.33,0,0,1,18.33,3a2.54,2.54,0,0,1,1.91.7,2.67,2.67,0,0,1,.68,1.93v4.84Z"/><path class="cls-2" d="M24.35,10.3v3.06H22.63V3.14h1.72v.5A2.16,2.16,0,0,1,25.93,3q3.51,0,3.51,3.86a3.75,3.75,0,0,1-1,2.78,3.57,3.57,0,0,1-2.65,1A3.37,3.37,0,0,1,24.35,10.3Zm0-5.36V8.8a1.68,1.68,0,0,0,1.09.38,2.21,2.21,0,0,0,1.7-.57,2.61,2.61,0,0,0,.52-1.78A2.59,2.59,0,0,0,27.14,5a2.31,2.31,0,0,0-1.7-.53A1.5,1.5,0,0,0,24.35,4.94Z"/><path class="cls-2" d="M31.24.41,33,0V8.25c0,.91.27,1.44.81,1.62a1.39,1.39,0,0,1-1.35.75q-1.17,0-1.17-1.62Z"/><path class="cls-2" d="M41.64,7.34H36.39A1.89,1.89,0,0,0,37,8.7a2.16,2.16,0,0,0,1.49.49,2.39,2.39,0,0,0,1.78-.61l.67,1.31a4.24,4.24,0,0,1-2.7.73,3.6,3.6,0,0,1-2.66-1,3.74,3.74,0,0,1-1-2.75,3.8,3.8,0,0,1,1.07-2.81A3.76,3.76,0,0,1,40.81,4a3.25,3.25,0,0,1,1,2.43A5.12,5.12,0,0,1,41.64,7.34ZM36.46,6.05h3.6a1.61,1.61,0,0,0-1.78-1.61A1.76,1.76,0,0,0,36.46,6.05Z"/><path class="cls-2" d="M7,3.14H8.71a0,0,0,0,1,0,0v7a.94.94,0,0,1-.94.94h0a.8.8,0,0,1-.8-.8V3.14a0,0,0,0,1,0,0Z"/></g></g></svg>